<?xml version="1.0" encoding="UTF-8"?><svg id="Layer_1" xmlns="http://www.w3.org/2000/svg" viewBox="0 0 1000 1289.11"><path d="M130.76,132.41h503.79C568.89,51.62,468.71,0,356.48,0c-85.56,0-164.12,30.01-225.72,80.07-19.2,15.6-36.75,33.15-52.35,52.34h52.35Z" style="fill-rule:evenodd;"/><path d="M867.59,421.58v503.79c80.8-65.67,132.41-165.84,132.41-278.07,0-85.56-30.01-164.12-80.07-225.72-15.6-19.2-33.15-36.75-52.34-52.35v52.35Z" style="fill-rule:evenodd;"/><path d="M582.21,1156.69H78.41c65.67,80.8,165.84,132.41,278.07,132.41,85.56,0,164.12-30.01,225.72-80.07,19.2-15.6,36.75-33.15,52.35-52.34h-52.35Z" style="fill-rule:evenodd;"/><path d="M356.49,1003.43C160.11,1003.43.35,843.67.35,647.3s159.76-356.13,356.13-356.13,356.13,159.76,356.13,356.13-159.76,356.13-356.13,356.13ZM356.49,421.58c-124.46,0-225.72,101.26-225.72,225.72s101.26,225.72,225.72,225.72,225.72-101.26,225.72-225.72-101.26-225.72-225.72-225.72Z"/><path d="M681.87,780.25c21.13-43.23,33.02-90.93,33.4-141.07h-.02c0-.8.02-1.59.02-2.38v-347.39c-53.33,13.4-97.76,45.8-123.61,88.53l90.21,402.31Z" style="fill-rule:evenodd;"/><path d="M490.84,320.34c-43.23-21.13-90.93-33.02-141.07-33.4v.02c-.8,0-1.59-.02-2.38-.02H0c13.4,53.33,45.8,97.76,88.53,123.61l402.31-90.21Z" style="fill-rule:evenodd;"/></svg>