<?xml version="1.0" encoding="utf-8"?>
<!-- Generator: Adobe Illustrator 16.0.3, SVG Export Plug-In . SVG Version: 6.00 Build 0)  -->
<!DOCTYPE svg PUBLIC "-//W3C//DTD SVG 1.1//EN" "http://www.w3.org/Graphics/SVG/1.1/DTD/svg11.dtd">
<svg version="1.1" id="Capa_1" xmlns="http://www.w3.org/2000/svg" xmlns:xlink="http://www.w3.org/1999/xlink" x="0px" y="0px"
	 width="595.27px" height="206.589px" viewBox="0 0 595.27 206.589" enable-background="new 0 0 595.27 206.589"
	 xml:space="preserve">
<g>
	<g>
		<path fill="#83C1FF" d="M86.278,98.048c-2.294,0-4.39-0.507-6.286-1.522c-1.898-1.015-3.402-2.424-4.51-4.228
			c-1.109-1.805-1.664-3.945-1.664-6.427V68.678c0-0.601-0.149-1.146-0.45-1.636c-0.302-0.486-0.694-0.882-1.184-1.183
			c-0.489-0.302-1.035-0.451-1.634-0.451c-0.603,0-1.148,0.149-1.636,0.451c-0.49,0.301-0.875,0.696-1.155,1.183
			c-0.282,0.49-0.425,1.035-0.425,1.636v28.693h-9.244V69.354c0-2.368,0.537-4.455,1.606-6.259c1.073-1.803,2.557-3.231,4.454-4.284
			c1.897-1.05,4.03-1.576,6.399-1.576c2.402,0,4.545,0.526,6.426,1.576c1.877,1.053,3.361,2.481,4.454,4.284
			c1.089,1.804,1.634,3.891,1.634,6.259v17.192c0,0.641,0.15,1.203,0.451,1.692c0.301,0.488,0.686,0.873,1.154,1.155
			c0.47,0.282,0.986,0.422,1.552,0.422c0.599,0,1.155-0.14,1.663-0.422c0.506-0.282,0.91-0.667,1.211-1.155
			c0.301-0.489,0.45-1.052,0.45-1.692V69.354c0-2.368,0.546-4.455,1.636-6.259c1.09-1.803,2.583-3.231,4.482-4.284
			c1.896-1.05,4.012-1.576,6.342-1.576c2.403,0,4.537,0.526,6.396,1.576c1.861,1.053,3.336,2.481,4.427,4.284
			c1.089,1.804,1.634,3.891,1.634,6.259v28.017h-9.246V68.622c0-0.602-0.14-1.136-0.421-1.606c-0.282-0.47-0.669-0.855-1.155-1.156
			c-0.49-0.302-1.035-0.451-1.635-0.451c-0.563,0-1.1,0.149-1.606,0.451c-0.509,0.301-0.911,0.687-1.212,1.156
			c-0.303,0.471-0.451,1.005-0.451,1.606v17.249c0,2.481-0.565,4.622-1.691,6.427c-1.127,1.804-2.632,3.213-4.512,4.228
			C90.654,97.541,88.568,98.048,86.278,98.048z"/>
		<path fill="#83C1FF" d="M140.055,98.104c-3.156,0-6.013-0.526-8.568-1.578c-2.555-1.052-4.754-2.518-6.597-4.396
			c-1.841-1.879-3.259-4.06-4.255-6.539c-0.996-2.481-1.493-5.148-1.493-8.005c0-2.855,0.497-5.524,1.493-8.006
			c0.996-2.479,2.406-4.65,4.229-6.509c1.821-1.861,4.02-3.308,6.595-4.341c2.573-1.033,5.439-1.552,8.596-1.552
			c3.121,0,5.967,0.519,8.54,1.552s4.772,2.479,6.596,4.341c1.823,1.858,3.241,4.038,4.257,6.538
			c1.015,2.498,1.521,5.158,1.521,7.977c0,2.856-0.507,5.523-1.521,8.005c-1.016,2.479-2.434,4.66-4.257,6.539
			s-4.022,3.345-6.596,4.396S143.176,98.104,140.055,98.104z M140.055,90.043c1.654,0,3.187-0.31,4.594-0.931
			c1.41-0.62,2.623-1.494,3.637-2.621c1.014-1.126,1.804-2.451,2.368-3.974s0.847-3.165,0.847-4.933
			c0-1.766-0.282-3.401-0.847-4.905c-0.564-1.501-1.354-2.817-2.368-3.946c-1.014-1.127-2.227-2-3.637-2.619
			c-1.407-0.623-2.939-0.932-4.594-0.932c-1.691,0-3.231,0.309-4.621,0.932c-1.392,0.619-2.604,1.492-3.637,2.619
			c-1.033,1.129-1.824,2.452-2.369,3.976c-0.544,1.522-0.814,3.147-0.814,4.876c0,1.768,0.271,3.41,0.814,4.933
			c0.545,1.522,1.336,2.848,2.369,3.974c1.033,1.127,2.245,2.001,3.637,2.621C136.823,89.733,138.363,90.043,140.055,90.043z"/>
		<path fill="#83C1FF" d="M165.987,97.371V57.91h14.486c4.172,0,7.789,0.845,10.853,2.537c3.062,1.691,5.448,4.021,7.159,6.989
			c1.708,2.971,2.563,6.372,2.563,10.204c0,3.834-0.855,7.235-2.563,10.203c-1.711,2.971-4.098,5.3-7.159,6.99
			c-3.063,1.691-6.681,2.537-10.853,2.537H165.987z M175.457,89.479h4.791c2.18,0,4.125-0.479,5.834-1.438
			c1.711-0.957,3.055-2.32,4.031-4.087c0.978-1.765,1.466-3.869,1.466-6.313c0-2.442-0.488-4.547-1.466-6.313
			c-0.977-1.766-2.32-3.129-4.031-4.087c-1.709-0.958-3.654-1.438-5.834-1.438h-4.791V89.479z"/>
		<path fill="#83C1FF" d="M225.178,98.104c-3.157,0-6.014-0.526-8.569-1.578s-4.755-2.518-6.596-4.396
			c-1.843-1.879-3.261-4.06-4.255-6.539c-0.997-2.481-1.494-5.148-1.494-8.005c0-2.855,0.497-5.524,1.494-8.006
			c0.994-2.479,2.404-4.65,4.228-6.509c1.822-1.861,4.021-3.308,6.595-4.341c2.576-1.033,5.44-1.552,8.598-1.552
			c3.118,0,5.965,0.519,8.539,1.552s4.773,2.479,6.596,4.341c1.824,1.858,3.242,4.038,4.257,6.538
			c1.016,2.498,1.522,5.158,1.522,7.977c0,2.856-0.507,5.523-1.522,8.005c-1.015,2.479-2.433,4.66-4.257,6.539
			c-1.822,1.879-4.021,3.345-6.596,4.396S228.296,98.104,225.178,98.104z M225.178,90.043c1.652,0,3.186-0.31,4.594-0.931
			c1.408-0.62,2.621-1.494,3.637-2.621c1.014-1.126,1.804-2.451,2.367-3.974c0.564-1.522,0.845-3.165,0.845-4.933
			c0-1.766-0.28-3.401-0.845-4.905c-0.563-1.501-1.354-2.817-2.367-3.946c-1.016-1.127-2.229-2-3.637-2.619
			c-1.408-0.623-2.941-0.932-4.594-0.932c-1.691,0-3.232,0.309-4.623,0.932c-1.391,0.619-2.604,1.492-3.637,2.619
			c-1.033,1.129-1.824,2.452-2.366,3.976c-0.546,1.522-0.818,3.147-0.818,4.876c0,1.768,0.272,3.41,0.818,4.933
			c0.542,1.522,1.333,2.848,2.366,3.974c1.033,1.127,2.246,2.001,3.637,2.621C221.945,89.733,223.486,90.043,225.178,90.043z"/>
		<path fill="#83C1FF" d="M249.474,97.371v-9.527h6.144V67.437h-6.144V57.91h24.522v9.526h-6.203v20.407h6.203v9.527H249.474z"/>
		<path fill="#83C1FF" d="M295.584,97.371c-2.518,0-4.754-0.534-6.707-1.606c-1.955-1.07-3.495-2.536-4.624-4.397
			c-1.125-1.859-1.69-3.974-1.69-6.342V67.437h-10.203V57.91h32.356v9.526h-9.977v18.209c0,0.603,0.206,1.119,0.62,1.55
			c0.412,0.434,0.921,0.648,1.521,0.648h3.778v9.527H295.584z"/>
		<path fill="#83C1FF" d="M303.309,97.371l12.627-34.499c0.714-1.879,1.889-3.299,3.521-4.256c1.636-0.96,3.487-1.438,5.555-1.438
			c2.066,0,3.918,0.471,5.551,1.41c1.637,0.939,2.811,2.35,3.525,4.228l12.627,34.556h-12.91l-2.143-6.878h-13.473l-2.254,6.878
			H303.309z M320.727,81.193h8.398l-3.662-12.684c-0.039-0.113-0.096-0.197-0.17-0.255c-0.076-0.057-0.17-0.084-0.281-0.084
			c-0.076,0-0.151,0.027-0.227,0.084c-0.076,0.058-0.133,0.142-0.169,0.255L320.727,81.193z"/>
		<path fill="#83C1FF" d="M361.426,97.371c-2.669,0-4.999-0.564-6.991-1.691c-1.989-1.127-3.53-2.621-4.621-4.48
			c-1.091-1.861-1.634-3.918-1.634-6.174V57.91h12.176v27.229c0,0.714,0.254,1.345,0.761,1.888c0.507,0.546,1.136,0.817,1.889,0.817
			h10.429v9.527H361.426z"/>
		<path fill="#83C1FF" d="M376.195,97.371v-9.527h6.145V67.437h-6.145V57.91h24.522v9.526h-6.202v20.407h6.202v9.527H376.195z"/>
		<path fill="#83C1FF" d="M402.465,97.371l12.627-34.499c0.713-1.879,1.887-3.299,3.523-4.256c1.635-0.96,3.484-1.438,5.553-1.438
			c2.065,0,3.918,0.471,5.554,1.41c1.634,0.939,2.807,2.35,3.521,4.228l12.628,34.556h-12.908l-2.141-6.878h-13.474l-2.256,6.878
			H402.465z M419.883,81.193h8.4l-3.664-12.684c-0.038-0.113-0.094-0.197-0.17-0.255c-0.075-0.057-0.167-0.084-0.281-0.084
			c-0.076,0-0.151,0.027-0.226,0.084c-0.075,0.058-0.131,0.142-0.169,0.255L419.883,81.193z"/>
		<path fill="#83C1FF" d="M477.552,98.104c-2.405,0-4.67-0.498-6.792-1.492c-2.126-0.996-3.844-2.454-5.16-4.37
			c-1.314-1.916-1.972-4.246-1.972-6.99V69.975c0-0.487-0.105-0.912-0.312-1.269c-0.205-0.357-0.479-0.629-0.816-0.817
			c-0.339-0.188-0.732-0.282-1.184-0.282s-0.855,0.094-1.213,0.282s-0.639,0.46-0.846,0.817c-0.207,0.356-0.31,0.781-0.31,1.269
			v27.396h-11.614V70.087c0-2.742,0.648-5.073,1.945-6.991c1.297-1.914,3.019-3.381,5.161-4.396c2.14-1.015,4.433-1.522,6.876-1.522
			s4.716,0.508,6.82,1.522s3.814,2.481,5.131,4.396c1.314,1.918,1.973,4.249,1.973,6.991v15.278c0,0.487,0.113,0.92,0.337,1.296
			c0.228,0.375,0.509,0.658,0.846,0.846c0.339,0.188,0.694,0.281,1.073,0.281c0.411,0,0.807-0.094,1.182-0.281
			c0.377-0.188,0.678-0.471,0.903-0.846c0.226-0.376,0.337-0.809,0.337-1.296V57.91h11.558v27.341c0,2.744-0.658,5.074-1.975,6.99
			c-1.315,1.916-3.034,3.374-5.156,4.37C482.22,97.605,479.956,98.104,477.552,98.104z"/>
		<path fill="#83C1FF" d="M516.73,98.104c-3.119,0-5.986-0.507-8.598-1.521c-2.613-1.015-4.867-2.452-6.764-4.312
			c-1.899-1.861-3.374-4.031-4.427-6.512c-1.052-2.481-1.579-5.187-1.579-8.118c0-2.931,0.527-5.646,1.579-8.146
			c1.053-2.499,2.527-4.669,4.427-6.511c1.896-1.841,4.15-3.27,6.764-4.284c2.611-1.015,5.479-1.522,8.598-1.522
			c3.117,0,5.983,0.508,8.596,1.522c2.611,1.015,4.867,2.443,6.764,4.284c1.898,1.842,3.372,4.012,4.426,6.511
			c1.053,2.5,1.58,5.215,1.58,8.146c0,2.932-0.527,5.637-1.58,8.118c-1.054,2.48-2.527,4.65-4.426,6.512
			c-1.896,1.859-4.152,3.297-6.764,4.312C522.714,97.597,519.848,98.104,516.73,98.104z M516.73,88.295
			c1.389,0,2.649-0.271,3.776-0.816s2.085-1.306,2.874-2.283c0.791-0.978,1.39-2.115,1.804-3.412c0.415-1.296,0.62-2.677,0.62-4.143
			c0-1.464-0.205-2.847-0.62-4.144c-0.414-1.295-1.013-2.434-1.804-3.41c-0.789-0.977-1.747-1.738-2.874-2.283
			s-2.388-0.817-3.776-0.817c-1.393,0-2.648,0.272-3.778,0.817c-1.127,0.545-2.087,1.307-2.874,2.283
			c-0.79,0.977-1.391,2.115-1.806,3.41c-0.413,1.297-0.618,2.68-0.618,4.144c0,1.466,0.205,2.847,0.618,4.143
			c0.415,1.297,1.016,2.435,1.806,3.412c0.787,0.978,1.747,1.738,2.874,2.283C514.082,88.023,515.338,88.295,516.73,88.295z"/>
	</g>
	<g>
		<path fill="#83C1FF" d="M94.205,131.275c0,10.525-8.533,19.059-19.057,19.059c-10.528,0-19.06-8.533-19.06-19.059
			s8.531-19.06,19.06-19.06C85.672,112.216,94.205,120.75,94.205,131.275z"/>
		<rect x="106.499" y="112.216" fill="#83C1FF" width="38.116" height="38.118"/>
		<polygon fill="#83C1FF" points="154.903,149.792 176.285,112.757 197.669,149.792 		"/>
	</g>
</g>
</svg>
