<svg id="svg1" xmlns="http://www.w3.org/2000/svg" xmlns:xlink="http://www.w3.org/1999/xlink" viewBox="0 0 1050.91 340.36"><defs><linearGradient id="Degradado_sin_nombre_2" x1="546.45" y1="-273.32" x2="546.45" y2="60.02" gradientTransform="matrix(1, 0, 0, -1, -21, 60.06)" gradientUnits="userSpaceOnUse"><stop offset="0" stop-color="#6d6d6f"/><stop offset="0.6" stop-color="#d5d5d7"/><stop offset="1" stop-color="#bbbcb9"/></linearGradient></defs><g id="g1"><g id="g45"><path id="path43" d="M956.12,0a24.94,24.94,0,0,0-25,25V64.77h25.54V24.65a2,2,0,0,1,2-2h.47a2,2,0,0,1,2,2v48c0,4.57-8.58,11.29-27.53,43.21,0,0-1.56,1.89-2.53,7.72v18.87c0,.15,0,.29,0,.44h0V167.4h24.63l.37,0h4.36v0h26.41V142.87h-30s0-.06,0-.1v-17.6c0-4.57,8.58-11.29,27.53-43.21,0,0,1.56-1.89,2.53-7.72V25a24.94,24.94,0,0,0-25-25Zm65.15,0A27.21,27.21,0,0,0,994,27.27V140.15a27.28,27.28,0,0,0,54.55,0V27.27A27.22,27.22,0,0,0,1021.27,0ZM52.71,3.12A50.24,50.24,0,0,0,2.37,53.47v68.59c2,11.75,5.09,15.56,5.09,15.56,38.18,64.29,55.45,77.83,55.45,87v66.06a4.07,4.07,0,0,1-4.08,4.08h-.95a4.07,4.07,0,0,1-4.08-4.08V216.45H2.37V290a50.24,50.24,0,0,0,50.34,50.35H64.43A50.24,50.24,0,0,0,114.78,290V221.42c-2-11.75-5.09-15.56-5.09-15.56-38.18-64.29-55.46-77.83-55.46-87v-66a4.07,4.07,0,0,1,4.08-4.09h.95a4.08,4.08,0,0,1,4.09,4.09V127h51.43V53.47A50.24,50.24,0,0,0,64.43,3.12Zm90.28,0L119.12,340.36H169l2.83-69.44h15.56l2.83,69.44h49.91L216.29,3.12H143Zm108.49,0V340.36H296.9V204.46l24.55,135.32v.58H367l-.13-.58V3.12H321.45V136L296.9,3.12Zm138.72,0V340.36h46.65V190.09c2.29.91,5.57,3.14,7.63,8.54l13.86,141.73H505L489.7,184a41.53,41.53,0,0,0-14.55-12.85,41.51,41.51,0,0,0,23.31-37.39v-89A41.57,41.57,0,0,0,456.79,3.12H439.43c-.87,0-1.73,0-2.58.09V3.12Zm121.41,0V340.36h86.06v-46h-40V181.87h40v-46h-40V49.16h40v-46H511.61Zm98.51,0V340.36h46V198l19.63,141.65-.1.73h39.5l-.1-.73L734.72,198V340.36h46V3.12H721.11L695.44,193.75,669.77,3.12H610.12Zm244,0a54.81,54.81,0,0,0-54.93,54.94V285.42a54.94,54.94,0,1,0,109.87,0V58.06A54.82,54.82,0,0,0,854.11,3.12Zm167.16,19.55a3,3,0,0,1,3,3V141.74a3,3,0,0,1-6,0V25.68A3,3,0,0,1,1021.27,22.67ZM854.11,48.79a6,6,0,0,1,6.06,6.06V288.63a6.06,6.06,0,1,1-12.12,0V54.85A6,6,0,0,1,854.11,48.79ZM439,48.91h4a5.73,5.73,0,0,1,5.75,5.75v88.11a5.74,5.74,0,0,1-5.75,5.75h-4ZM179.4,86h.49l5.85,143.66h-12.2Zm776.72,86.92a24.94,24.94,0,0,0-25,25v39.78h25.54V197.59a2,2,0,0,1,2-2h.47a2,2,0,0,1,2,2v48c0,4.57-8.58,11.29-27.53,43.21,0,0-1.56,1.89-2.53,7.72v18.86c0,.15,0,.3,0,.45h0v24.53h24.63l.37,0h4.36v0h26.41V315.81h-30s0-.06,0-.1v-17.6c0-4.57,8.58-11.29,27.53-43.21,0,0,1.56-1.89,2.53-7.72V197.93a24.94,24.94,0,0,0-25-25Zm65.15,0A27.21,27.21,0,0,0,994,200.21V313.09a27.28,27.28,0,0,0,54.55,0V245.21c-8.09-12.66-19.84-10.38-30.29-4.56v-42a3,3,0,1,1,6,0V228h24.27V200.21a27.22,27.22,0,0,0-27.28-27.27Zm.83,85.07a6.07,6.07,0,0,1,2.18.45v56.22a3,3,0,1,1-6,0V260.07A4.87,4.87,0,0,1,1022.1,258Z" style="fill:#fff"/><g id="g15"><path id="rect13" d="M958.48,0a24.94,24.94,0,0,0-25,25V64.77H959V24.65a2,2,0,0,1,2-2h.47a2,2,0,0,1,2,2v48c0,4.57-8.57,11.29-27.53,43.21,0,0-1.55,1.89-2.52,7.73v18.86c0,.15,0,.29,0,.44h0V167.4h24.63l.36,0h4.36v0h26.41V142.87h-30s0-.06,0-.1v-17.6c0-4.57,8.57-11.29,27.53-43.21,0,0,1.55-1.89,2.52-7.72V25a24.94,24.94,0,0,0-25-25Zm65.16,0a27.21,27.21,0,0,0-27.27,27.27V140.15a27.27,27.27,0,0,0,54.54,0V27.27A27.21,27.21,0,0,0,1023.64,0ZM50.35,3.12A50.24,50.24,0,0,0,0,53.47v68.59c2,11.75,5.09,15.56,5.09,15.56,38.18,64.29,55.46,77.83,55.46,87v66.06a4.07,4.07,0,0,1-4.09,4.08h-.94a4.07,4.07,0,0,1-4.09-4.08V216.45H0V290a50.24,50.24,0,0,0,50.35,50.35H62.07A50.24,50.24,0,0,0,112.41,290V221.42c-2-11.75-5.09-15.56-5.09-15.56-38.18-64.29-55.45-77.82-55.45-87v-66A4.07,4.07,0,0,1,56,48.69h.95A4.07,4.07,0,0,1,61,52.78V127h51.43V53.47A50.24,50.24,0,0,0,62.07,3.12Zm90.27,0L116.75,340.36h49.92l2.83-69.44h15.55l2.83,69.44H237.8L213.93,3.12H140.62Zm108.49,0V340.36h45.43V204.46l24.55,135.32v.58h45.54l-.12-.58V3.12H319.09V136L294.54,3.12Zm138.72,0V340.36h46.65V190.09c2.29.91,5.57,3.14,7.63,8.54L456,340.36h46.64L487.33,184a41.44,41.44,0,0,0-14.55-12.85,41.51,41.51,0,0,0,23.31-37.39v-89A41.57,41.57,0,0,0,454.43,3.12H437.07c-.87,0-1.73,0-2.59.09V3.12Zm125.22,0V340.36h86.06v-46h-40V181.87h40v-46h-40V49.16h40v-46H513.05Zm99.44,0V340.36h46V198l19.64,141.65-.1.73h39.49l-.09-.73L737.09,198V340.36h46V3.12H723.48L697.8,193.75,672.13,3.12H612.49Zm244,0a54.82,54.82,0,0,0-54.94,54.94V285.42a54.94,54.94,0,1,0,109.87,0V58.06A54.81,54.81,0,0,0,856.48,3.12Zm167.16,19.55a3,3,0,0,1,3,3V141.74a3,3,0,0,1-6,0V25.68A3,3,0,0,1,1023.64,22.67ZM856.48,48.79a6,6,0,0,1,6.06,6.06V288.63a6.07,6.07,0,0,1-12.13,0V54.85A6.05,6.05,0,0,1,856.48,48.79Zm-419.85.12h4a5.74,5.74,0,0,1,5.75,5.75v88.11a5.74,5.74,0,0,1-5.75,5.75h-4ZM177,86h.49l5.86,143.66h-12.2Zm781.45,86.92a24.94,24.94,0,0,0-25,25v39.78H959V197.59a2,2,0,0,1,2-2h.47a2,2,0,0,1,2,2v48c0,4.57-8.57,11.29-27.53,43.21,0,0-1.55,1.89-2.52,7.72v18.87c0,.15,0,.29,0,.44h0v24.53h24.63l.36,0h4.36v0h26.41V315.81h-30s0-.06,0-.1v-17.6c0-4.57,8.57-11.29,27.53-43.21,0,0,1.55-1.89,2.52-7.72V197.93a24.93,24.93,0,0,0-25-25Zm65.16,0a27.21,27.21,0,0,0-27.27,27.27V313.09a27.27,27.27,0,0,0,54.54,0V245.21c-8.09-12.66-19.83-10.38-30.28-4.56v-42a3,3,0,0,1,6,0V228h24.26V200.21A27.21,27.21,0,0,0,1023.64,172.94Zm.83,85.07a6.07,6.07,0,0,1,2.18.45v56.22a3,3,0,0,1-6,0V260.07A4.84,4.84,0,0,1,1024.47,258Z" style="fill:url(#Degradado_sin_nombre_2)"/></g></g></g></svg>